<?xml version="1.0" encoding="utf-8"?>
<!-- Generator: Adobe Illustrator 25.2.3, SVG Export Plug-In . SVG Version: 6.00 Build 0)  -->
<svg version="1.1" id="Layer_1" xmlns="http://www.w3.org/2000/svg" xmlns:xlink="http://www.w3.org/1999/xlink" x="0px" y="0px"
	 viewBox="0 0 216 236.2" style="enable-background:new 0 0 216 236.2;" xml:space="preserve">
<style type="text/css">
	.st0{fill:#2500FF;}
</style>
<g>
	<path class="st0" d="M216,14.4V0H0v14.4h72v14.4H0v14.4h72v14.4H0V72h72l0,72h14.4l0-72h14.4v72h14.4V72h14.4l0,72H144l0-72h72
		V57.6h-72V43.2h72V28.8h-72V14.4H216z M100.8,57.6H86.4V43.2h14.4V57.6z M100.8,28.8H86.4V14.4h14.4V28.8z M115.2,14.4h14.4v14.4
		h-14.4V14.4z M129.6,57.6h-14.4V43.2h14.4V57.6z"/>
	<g>
		<g>
			<g>
				<path class="st0" d="M51.4,182.5c13.8,0,22.6,9.1,22.6,23.1c0,13.9-8.9,23-22.6,23c-13.7,0-22.6-9.1-22.6-23
					C28.9,191.6,37.8,182.5,51.4,182.5z M51.4,219.5c8.2,0,10.6-7,10.6-13.9c0-7-2.4-14-10.6-14c-8.1,0-10.6,7-10.6,14
					C40.9,212.5,43.3,219.5,51.4,219.5z"/>
				<path class="st0" d="M78.5,182.5h11.4v6.8H90c2.9-4.6,7.6-6.8,13-6.8c13.7,0,19.8,11.1,19.8,23.5c0,11.7-6.4,22.5-19.2,22.5
					c-5.2,0-10.2-2.3-13.1-6.6h-0.2v14.3h-12V182.5z M110.9,205.6c0-6.9-2.8-14.1-10.5-14.1c-7.9,0-10.4,7-10.4,14.1
					c0,7.1,2.7,13.9,10.5,13.9C108.4,219.5,110.9,212.7,110.9,205.6z"/>
				<path class="st0" d="M149.5,182.5c13.8,0,22.6,9.1,22.6,23.1c0,13.9-8.9,23-22.6,23c-13.7,0-22.5-9.1-22.5-23
					C126.9,191.6,135.8,182.5,149.5,182.5z M149.5,219.5c8.2,0,10.6-7,10.6-13.9c0-7-2.4-14-10.6-14c-8.1,0-10.6,7-10.6,14
					C138.9,212.5,141.4,219.5,149.5,219.5z"/>
			</g>
			<path class="st0" d="M18,182.4h9.3v8.5H18v22.3c0,4.3,1.1,5.3,5.3,5.3c1.3,0,2.6-0.1,3.9-0.4v9.9c-2.1,0.4-4.9,0.4-7.4,0.4
				c-7.7,0-14.5-1.8-14.5-10.9v-26.7H0v-8.5h5.3v-7.7H18V182.4z"/>
		</g>
		<path class="st0" d="M202.1,201.1c-6.8-1.6-13.6-2.2-13.6-6.5c0-3.6,4-4.1,6.7-4.1c3.6,0,6.7,0.9,7.8,4h11.5c-1.8-9.2-10-12-19-12
			c-9.4,0-19,2.9-19,14c0,7.7,6.9,10.1,13.9,11.7c8.6,1.9,13.6,3.1,13.6,6.8c0,4.2-4.4,5.6-7.9,5.6c-4.1,0-7.9-1.6-8.9-5.4h-11.5
			c1.5,10.1,10.8,13.4,20.3,13.4c10,0,19.9-3.7,19.9-15.2C216,205.2,209.2,202.7,202.1,201.1z"/>
	</g>
</g>
</svg>
