<?xml version="1.0" standalone="no"?>
<!DOCTYPE svg PUBLIC "-//W3C//DTD SVG 20010904//EN"
 "http://www.w3.org/TR/2001/REC-SVG-20010904/DTD/svg10.dtd">
<svg version="1.0" xmlns="http://www.w3.org/2000/svg"
 width="700.000000pt" height="700.000000pt" viewBox="0 0 700.000000 700.000000"
 preserveAspectRatio="xMidYMid meet">
<metadata>
Created by potrace 1.11, written by Peter Selinger 2001-2013
</metadata>
<g transform="translate(0.000000,700.000000) scale(0.100000,-0.100000)"
fill="#000000" stroke="none">
<path d="M2197 5854 c-1 -1 -44 -4 -96 -8 -51 -3 -97 -9 -102 -12 -4 -2 -26
-7 -47 -9 -119 -12 -335 -85 -497 -167 -490 -249 -832 -705 -949 -1268 -14
-69 -33 -150 -41 -180 -16 -58 -17 -62 -35 -150 -28 -142 -34 -442 -11 -580
68 -404 235 -734 511 -1010 90 -90 255 -222 331 -264 241 -135 410 -198 650
-240 115 -21 350 -27 483 -13 264 28 553 131 777 278 82 54 201 143 240 181 8
7 39 33 69 58 30 25 57 47 60 50 3 4 43 37 90 75 47 38 87 72 90 75 3 3 61 53
130 110 69 58 130 109 136 115 6 5 31 26 55 46 24 20 62 52 84 70 22 19 49 42
60 51 102 86 286 218 304 218 5 0 11 3 13 8 7 17 223 128 336 173 82 33 212
73 275 84 20 4 37 10 37 12 0 3 -52 55 -116 116 l-116 111 54 19 c29 10 99 31
156 46 l103 27 -118 110 c-65 61 -142 132 -172 160 -30 27 -62 56 -71 64 -18
17 -131 117 -170 150 -14 12 -37 32 -51 44 -14 13 -215 182 -445 376 -230 194
-441 372 -469 395 -185 158 -326 275 -360 300 -22 17 -42 33 -45 37 -13 16
-191 121 -273 161 -130 62 -304 124 -397 140 -14 3 -43 8 -65 12 -22 4 -49 9
-60 11 -59 11 -329 25 -338 18z"/>
<path d="M5478 3544 c-2 -1 -23 -5 -46 -9 -113 -17 -245 -71 -362 -149 -106
-71 -252 -219 -282 -287 -7 -16 -16 -29 -20 -29 -5 0 -8 -6 -8 -14 0 -8 -9
-17 -20 -21 -40 -13 -197 -124 -255 -181 -67 -66 -90 -92 -155 -179 -151 -203
-442 -516 -595 -640 -40 -33 -74 -63 -74 -66 -1 -3 70 -55 156 -114 87 -60
214 -149 283 -197 69 -48 132 -92 140 -98 8 -6 53 -37 100 -70 365 -255 454
-300 653 -334 86 -15 276 -13 350 4 276 64 502 216 637 429 25 38 48 70 53 71
12 0 158 91 191 119 169 141 287 326 342 536 22 82 26 123 27 230 0 73 -6 156
-13 190 -8 33 -15 65 -16 72 -6 34 -39 120 -68 180 -171 351 -510 561 -903
560 -62 0 -114 -1 -115 -3z"/>
</g>
</svg>
